<svg height="512pt" viewBox="-35 0 512 512.00013" width="512pt" xmlns="http://www.w3.org/2000/svg"><path d="m244.675781 186.929688 2.792969-65.730469c.351562-8.230469-6.230469-15.09375-14.46875-15.09375h-218.085938c-8.238281 0-14.8164058 6.863281-14.46875 15.09375l2.792969 65.730469zm0 0" fill="#d8dce5"/><path d="m45.511719 106.105469h-30.597657c-8.238281 0-14.8164058 6.863281-14.46875 15.09375l2.792969 65.730469h30.597657l-2.792969-65.730469c-.347657-8.230469 6.230469-15.09375 14.46875-15.09375zm0 0" fill="#c3c8d1"/><path d="m74.761719 407.46875c0-57.730469 41.722656-99.457031 99.453125-99.457031 23.34375 0 44.898437 7.65625 62.296875 20.585937-.003907 0-.003907 0-.003907-.003906.460938-.429688.9375-.84375 1.40625-1.261719l6.847657-142.433593h-241.609375l11.980468 282.003906h78.164063c-11.683594-16.878906-18.535156-37.351563-18.535156-59.433594zm0 0" fill="#f25c5c"/><path d="m3.152344 184.898438 11.980468 282.003906h30.597657l-11.980469-282.003906zm0 0" fill="#e54a4a"/><path d="m95.328125 466.902344h-80.195313l1.324219 31.230468c.332031 7.753907 6.710938 13.867188 14.46875 13.867188h144.304688c-35.648438 0-61.035157-17.851562-79.902344-45.097656zm0 0" fill="#e54a4a"/><path d="m47.058594 498.132812-1.328125-31.234374h-30.597657l1.324219 31.234374c.332031 7.753907 6.710938 13.867188 14.46875 13.867188h30.601563c-7.761719 0-14.140625-6.113281-14.46875-13.867188zm0 0" fill="#d83f3f"/><path d="m95.242188 344.449219-17.5-306.625c-.449219-8.492188-5.925782-15.800781-13.953126-18.609375l-53.660156-18.785156c-3.964844-1.386719-8.308594.703124-9.699218 4.667968-1.390626 3.96875.699218 8.308594 4.667968 9.699219l53.660156 18.785156c2.175782.761719 3.660157 2.742188 3.785157 5.078125l18.726562 328.152344c3.714844-8.058594 8.421875-15.566406 13.972657-22.363281zm0 0" fill="#c3c8d1"/><path d="m346.554688 302.9375c-8.265626 0-16.25 1.53125-23.78125 4.378906-3.914063 1.480469-8.203126 1.480469-12.117188 0-7.53125-2.847656-15.515625-4.378906-23.78125-4.378906-18.492188 0-37.597656 7.652344-51.382812 20.582031 25.632812 19.050781 42.242187 49.5625 42.242187 83.949219 0 34.390625-16.609375 64.898438-42.242187 83.949219 13.785156 12.929687 32.890624 20.582031 51.382812 20.582031 8.265625 0 16.246094-1.53125 23.78125-4.378906 3.914062-1.480469 8.199219-1.480469 12.117188 0 7.53125 2.847656 15.511718 4.378906 23.777343 4.378906 1.210938 0 2.410157-.039062 3.609375-.105469-16.191406-3.195312-30.402344-16.917969-30.402344-35.953125 0-19.917968 13.101563-33.015625 33.015626-33.015625 10.773437 0 20.433593 4.726563 27.042968 12.214844 6.605469-7.488281 16.269532-12.214844 27.042969-12.214844 6.242187 0 12.113281.570313 17.234375 3.363281 3.410156-11.445312 5.28125-25.871093 5.28125-38.820312-.003906-57.730469-37.082031-104.53125-82.820312-104.53125zm0 0" fill="#6fd844"/><path d="m264.707031 306.5c-10.796875 3.449219-20.960937 9.277344-29.214843 17.019531 25.632812 19.050781 42.242187 49.558594 42.242187 83.949219s-16.609375 64.898438-42.242187 83.949219c8.253906 7.742187 18.417968 13.570312 29.210937 17.019531 27.894531-24.746094 45.507813-60.835938 45.507813-100.96875s-17.613282-76.222656-45.503907-100.96875zm0 0" fill="#5fbf32"/><path d="m316.714844 316.039062c-4.207032 0-7.613282-3.40625-7.613282-7.613281 0-50.921875 24.808594-71.324219 25.863282-72.167969 3.285156-2.625 8.074218-2.085937 10.699218 1.199219 2.609376 3.265625 2.09375 8.027344-1.148437 10.65625-.917969.765625-20.191406 17.347657-20.191406 60.3125 0 4.207031-3.40625 7.613281-7.609375 7.613281zm0 0" fill="#a56e58"/><path d="m279.761719 407.46875c0 57.730469-46.800781 104.53125-104.53125 104.53125s-104.53125-46.800781-104.53125-104.53125 46.800781-104.53125 104.53125-104.53125 104.53125 46.800781 104.53125 104.53125zm0 0" fill="#feb644"/><path d="m101.316406 407.46875c0-52.53125 38.75-96.003906 89.222656-103.410156-4.996093-.734375-10.105468-1.121094-15.308593-1.121094-57.730469 0-104.53125 46.800781-104.53125 104.53125s46.800781 104.53125 104.53125 104.53125c5.203125 0 10.3125-.386719 15.308593-1.117188-50.472656-7.410156-89.222656-50.882812-89.222656-103.414062zm0 0" fill="#f9972d"/><path d="m175.230469 316.039062c-4.203125 0-7.609375-3.40625-7.609375-7.613281 0-50.921875 24.804687-71.324219 25.863281-72.167969 3.285156-2.625 8.074219-2.085937 10.699219 1.199219 2.609375 3.265625 2.089844 8.027344-1.152344 10.65625-.914062.765625-20.1875 17.347657-20.1875 60.3125 0 4.207031-3.40625 7.613281-7.613281 7.613281zm0 0" fill="#a56e58"/><path d="m406.859375 439.878906c-10.773437 0-22.464844 4.730469-29.074219 12.21875 5.609375 6.355469 9.019532 14.699219 9.019532 23.84375 0 9.144532-3.410157 17.484375-9.019532 23.839844 6.609375 7.488281 18.300782 12.21875 29.074219 12.21875 19.914063 0 36.058594-16.144531 36.058594-36.058594 0-19.917968-16.144531-36.0625-36.058594-36.0625zm0 0" fill="#e54a4a"/><path d="m377.785156 452.097656c5.609375 6.355469 9.019532 14.699219 9.019532 23.84375 0 9.140625-3.410157 17.484375-9.019532 23.839844 6.609375 7.492188 18.300782 12.21875 29.070313 12.21875.601562 0 1.195312-.015625 1.785156-.042969 6.722656-10.390625 10.640625-22.75 10.640625-36.015625s-3.917969-25.628906-10.640625-36.015625c-.589844-.03125-1.183594-.046875-1.785156-.046875-10.769531 0-22.460938 4.730469-29.070313 12.21875zm0 0" fill="#d83f3f"/><path d="m388.835938 475.941406c0 19.914063-16.144532 36.058594-36.0625 36.058594-19.914063 0-36.058594-16.144531-36.058594-36.058594 0-19.917968 16.144531-36.0625 36.058594-36.0625 19.917968 0 36.0625 16.144532 36.0625 36.0625zm0 0" fill="#f25c5c"/><path d="m347.328125 475.941406c0-14.441406 8.492187-26.894531 20.753906-32.652344-4.644531-2.183593-9.832031-3.410156-15.308593-3.410156-19.914063 0-36.058594 16.144532-36.058594 36.058594 0 19.917969 16.144531 36.0625 36.058594 36.0625 5.476562 0 10.660156-1.226562 15.308593-3.410156-12.261719-5.757813-20.753906-18.207032-20.753906-32.648438zm0 0" fill="#e54a4a"/><path d="m411.644531 440.996094c-.324219-.261719-32.414062-26.625-40.308593-62.617188-.898438-4.105468-4.960938-6.703125-9.066407-5.804687-4.105469.898437-6.703125 4.957031-5.804687 9.066406 1.546875 7.054687 3.867187 13.730469 6.632812 19.976563l-17.367187 42.414062c-1.59375 3.890625.269531 8.332031 4.160156 9.929688.945313.386718 1.921875.566406 2.882813.566406 2.996093 0 5.839843-1.78125 7.046874-4.726563l12.640626-30.871093c13.089843 20.398437 28.636718 33.117187 29.617187 33.910156 3.265625 2.636718 8.050781 2.125 10.695313-1.140625 2.640624-3.265625 2.132812-8.054688-1.128907-10.703125zm0 0" fill="#a56e58"/></svg>